{"title":"Apocalypto [2006] BRRip XviD - CODY","uid":7425609,"size":1263401874,"categoryP":"video","categoryS":"movies","magnet":"?xt=urn:btih:f8292f8639d496f70e2fa366a39a47efd9d11ca0&amp;dn=Apocalypto+%5B2006%5D+BRRip+XviD+-+CODY&amp;tr=udp%3A%2F%2Ftracker.openbittorrent.com%3A80&amp;tr=udp%3A%2F%2Fopen.demonii.com%3A1337&amp;tr=udp%3A%2F%2Ftracker.coppersurfer.tk%3A6969&amp;tr=udp%3A%2F%2Fexodus.desync.com%3A6969","seeders":0,"leechers":0,"uploader":"CODYBOSS1969","files":23,"time":1341795618,"description":"General\nComplete name                            : Apocalypto [2006] BRRip XviD - CODY.avi\nFormat                                   : AVI\nFormat/Info                              : Audio Video Interleave\nFile size                                : 1.18 GiB\nDuration                                 : 2h 18mn\nOverall bit rate                         : 1 217 Kbps\nWriting application                      : VirtualDubMod 1.5.10.3 | www.virtualdub-fr.org || (build 2550/release)\nWriting library                          : VirtualDubMod build 2550/release\n\nVideo\nID                                       : 0\nFormat                                   : MPEG-4 Visual\nFormat profile                           : Advanced Simple@L5\nFormat settings, BVOP                    : 4\nFormat settings, QPel                    : No\nFormat settings, GMC                     : No warppoints\nFormat settings, Matrix                  : Default (H.263)\nCodec ID                                 : XVID\nCodec ID/Hint                            : XviD\nDuration                                 : 2h 18mn\nBit rate                                 : 1 080 Kbps\nWidth                                    : 720 pixels\nHeight                                   : 392 pixels\nDisplay aspect ratio                     : 16:9\nFrame rate                               : 23.976 fps\nColor space                              : YUV\nChroma subsampling                       : 4:2:0\nBit depth                                : 8 bits\nScan type                                : Progressive\nCompression mode                         : Lossy\nBits/(Pixel*Frame)                       : 0.160\nStream size                              : 1.04 GiB (89%)\nWriting library                          : XviD 1.2.1 (UTC 2008-12-04)\n\nAudio\nID                                       : 1\nFormat                                   : MPEG Audio\nFormat version                           : Version 1\nFormat profile                           : Layer 3\nCodec ID                                 : 55\nCodec ID/Hint                            : MP3\nDuration                                 : 2h 18mn\nBit rate mode                            : Constant\nBit rate                                 : 128 Kbps\nChannel(s)                               : 2 channels\nSampling rate                            : 48.0 KHz\nCompression mode                         : Lossy\nStream size                              : 127 MiB (11%)\nAlignment                                : Aligned on interleaves\nInterleave, duration                     : 42 ms (1.00 video frame)\nInterleave, preload duration             : 504 ms\nWriting library                          : L3.99r\nEncoding settings                        : -m s -V 4 -q 2 -lowpass 17 -b 128\n\n\nAudio language                           : Maya\n\n\nIMDB link:                                &lt;a href=&quot; http://www.imdb.com/title/tt0472043/&quot; rel=&quot;nofollow&quot; target=&quot;_NEW&quot;&gt; http://www.imdb.com/title/tt0472043/&lt;/a&gt;\n\n\nSubtitles included: Bulgarian, Chinese, Czech, Danish, Dutch, English, Finnish, German, Greek, Hungarian, Norwegian, Polish, Portuguese, Portuguese-Brazilian, Romanian, Spanish, Swedish, Turkish, Vietnamese\n\n\nPlease seed at least 1,5:1 . This way this torrent has a chance to survive !\n\n\nThanks . Enjoy !!","torrent":{"xt":"urn:btih:f8292f8639d496f70e2fa366a39a47efd9d11ca0","amp;dn":"Apocalypto+%5B2006%5D+BRRip+XviD+-+CODY","amp;tr":["udp%3A%2F%2Ftracker.openbittorrent.com%3A80","udp%3A%2F%2Fopen.demonii.com%3A1337","udp%3A%2F%2Ftracker.coppersurfer.tk%3A6969","udp%3A%2F%2Fexodus.desync.com%3A6969"],"infoHash":"f8292f8639d496f70e2fa366a39a47efd9d11ca0","infoHashBuffer":{"type":"Buffer","data":[248,41,47,134,57,212,150,247,14,47,163,102,163,154,71,239,217,209,28,160]},"announce":[],"urlList":[]}}